<svg xmlns="http://www.w3.org/2000/svg" viewBox="0 0 800 600" fill="none" aria-hidden="true">
  <defs>
    <linearGradient id="h-bg" x1="0" y1="0" x2="1" y2="1">
      <stop stop-color="#ecfdf5"/>
      <stop offset="0.45" stop-color="#d1fae5"/>
      <stop offset="1" stop-color="#ccfbf1"/>
    </linearGradient>
    <linearGradient id="h-card" x1="0" y1="0" x2="0" y2="1">
      <stop stop-color="#ffffff" stop-opacity="0.95"/>
      <stop offset="1" stop-color="#f0fdf4" stop-opacity="0.9"/>
    </linearGradient>
  </defs>
  <rect width="800" height="600" fill="url(#h-bg)"/>
  <rect x="120" y="80" width="560" height="380" rx="24" fill="url(#h-card)" stroke="#047857" stroke-opacity="0.12" stroke-width="2"/>
  <rect x="160" y="130" width="200" height="14" rx="7" fill="#047857" fill-opacity="0.15"/>
  <rect x="160" y="160" width="140" height="10" rx="5" fill="#047857" fill-opacity="0.1"/>
  <rect x="160" y="210" width="480" height="120" rx="16" fill="#047857" fill-opacity="0.06"/>
  <rect x="180" y="235" width="120" height="70" rx="12" fill="#059669" fill-opacity="0.2"/>
  <rect x="320" y="235" width="120" height="70" rx="12" fill="#047857" fill-opacity="0.12"/>
  <rect x="460" y="235" width="120" height="70" rx="12" fill="#0d9488" fill-opacity="0.18"/>
  <circle cx="640" cy="360" r="88" fill="#047857" fill-opacity="0.08"/>
  <circle cx="640" cy="360" r="56" fill="#059669" fill-opacity="0.15"/>
  <path d="M620 352c12-18 32-28 52-26 16 2 30 12 38 26" stroke="#047857" stroke-opacity="0.35" stroke-width="4" stroke-linecap="round"/>
  <circle cx="672" cy="328" r="10" fill="#047857" fill-opacity="0.35"/>
  <circle cx="608" cy="332" r="8" fill="#047857" fill-opacity="0.3"/>
</svg>
